<svg width="79" height="13" viewBox="0 0 79 13" fill="none" xmlns="http://www.w3.org/2000/svg">
<rect opacity="0.35" x="51.9987" y="0.5" width="24" height="12" rx="3" stroke="#1D1D1F"/>
<path opacity="0.4" d="M77.4987 4.6665V8.6665C78.3034 8.32773 78.8267 7.53964 78.8267 6.6665C78.8267 5.79337 78.3034 5.00528 77.4987 4.6665Z" fill="#1D1D1F"/>
<rect x="53.4987" y="2" width="21" height="9" rx="1.33333" fill="#1D1D1F"/>
<path fill-rule="evenodd" clip-rule="evenodd" d="M35.6659 3.0676C38.1324 3.0677 40.5047 3.96523 42.2923 5.57467C42.4269 5.69893 42.6421 5.69736 42.7746 5.57116L44.0614 4.34134C44.1285 4.27733 44.166 4.19063 44.1654 4.10041C44.1648 4.0102 44.1263 3.92392 44.0584 3.86066C39.3665 -0.397562 31.9645 -0.397562 27.2726 3.86066C27.2046 3.92387 27.166 4.01013 27.1654 4.10034C27.1648 4.19055 27.2021 4.27728 27.2692 4.34134L28.5564 5.57116C28.6889 5.69755 28.9042 5.69912 29.0387 5.57467C30.8266 3.96512 33.1991 3.06759 35.6659 3.0676ZM35.6641 7.17548C37.0102 7.1754 38.3083 7.67351 39.3061 8.57303C39.441 8.7007 39.6536 8.69793 39.7852 8.5668L41.0618 7.28262C41.1291 7.21526 41.1664 7.12389 41.1654 7.02893C41.1644 6.93398 41.1253 6.84337 41.0567 6.77739C38.0182 3.96353 33.3126 3.96353 30.2741 6.77739C30.2055 6.84337 30.1663 6.93402 30.1654 7.02901C30.1645 7.12399 30.202 7.21536 30.2693 7.28262L31.5456 8.5668C31.6772 8.69793 31.8898 8.7007 32.0247 8.57303C33.0219 7.67411 34.3189 7.17604 35.6641 7.17548ZM38.1653 9.89464C38.1672 9.99719 38.1305 10.0961 38.0637 10.1679L35.9051 12.5573C35.8418 12.6275 35.7555 12.667 35.6655 12.667C35.5755 12.667 35.4892 12.6275 35.4259 12.5573L33.2669 10.1679C33.2002 10.096 33.1635 9.9971 33.1655 9.89456C33.1675 9.79201 33.2079 9.69491 33.2773 9.62617C34.6559 8.34727 36.675 8.34727 38.0537 9.62617C38.123 9.69496 38.1634 9.7921 38.1653 9.89464Z" fill="#1D1D1F"/>
<path fill-rule="evenodd" clip-rule="evenodd" d="M19.7653 1.79199C19.7653 1.17067 19.2877 0.666992 18.6986 0.666992H17.632C17.0429 0.666992 16.5653 1.17067 16.5653 1.79199V11.542C16.5653 12.1633 17.0429 12.667 17.632 12.667H18.6986C19.2877 12.667 19.7653 12.1633 19.7653 11.542V1.79199ZM12.332 3.06699H13.3986C13.9877 3.06699 14.4653 3.58276 14.4653 4.21899V11.515C14.4653 12.1512 13.9877 12.667 13.3986 12.667H12.332C11.7429 12.667 11.2653 12.1512 11.2653 11.515V4.21899C11.2653 3.58276 11.7429 3.06699 12.332 3.06699ZM7.99864 5.66699H6.93197C6.34287 5.66699 5.86531 6.18933 5.86531 6.83366V11.5003C5.86531 12.1447 6.34287 12.667 6.93197 12.667H7.99864C8.58774 12.667 9.06531 12.1447 9.06531 11.5003V6.83366C9.06531 6.18933 8.58774 5.66699 7.99864 5.66699ZM2.69864 8.06699H1.63197C1.04287 8.06699 0.565308 8.58186 0.565308 9.21699V11.517C0.565308 12.1521 1.04287 12.667 1.63197 12.667H2.69864C3.28774 12.667 3.76531 12.1521 3.76531 11.517V9.21699C3.76531 8.58186 3.28774 8.06699 2.69864 8.06699Z" fill="#1D1D1F"/>
</svg>

