<svg width="55" height="21" viewBox="0 0 55 21" fill="none" xmlns="http://www.w3.org/2000/svg">
<path d="M15.7053 4.72314C18.262 4.72314 20.4866 6.54102 20.4866 10.8574V10.874C20.4866 14.9082 18.6687 17.2988 15.6555 17.2988C13.4558 17.2988 11.8123 15.9956 11.4304 14.1611L11.4138 14.0698H13.5222L13.5471 14.1528C13.8625 14.9912 14.6013 15.5391 15.6555 15.5391C17.5564 15.5391 18.3616 13.6797 18.4529 11.3887C18.4529 11.2974 18.4612 11.2061 18.4612 11.1147H18.2952C17.8552 12.061 16.8093 12.8994 15.1658 12.8994C12.8665 12.8994 11.2561 11.2227 11.2561 8.94824V8.93164C11.2561 6.49951 13.1072 4.72314 15.7053 4.72314ZM15.697 11.2559C17.05 11.2559 18.0876 10.2764 18.0876 8.92334V8.90674C18.0876 7.53711 17.05 6.46631 15.7219 6.46631C14.4021 6.46631 13.3479 7.52051 13.3479 8.85693V8.87354C13.3479 10.2598 14.3357 11.2559 15.697 11.2559ZM23.8471 9.23877C23.0918 9.23877 22.5273 8.65771 22.5273 7.92725C22.5273 7.18848 23.0918 6.61572 23.8471 6.61572C24.6108 6.61572 25.167 7.18848 25.167 7.92725C25.167 8.65771 24.6108 9.23877 23.8471 9.23877ZM23.8471 15.3979C23.0918 15.3979 22.5273 14.8252 22.5273 14.0864C22.5273 13.3477 23.0918 12.7749 23.8471 12.7749C24.6108 12.7749 25.167 13.3477 25.167 14.0864C25.167 14.8252 24.6108 15.3979 23.8471 15.3979ZM33.0182 17V14.7007H27.1579V12.9492C28.7101 10.2515 30.4118 7.49561 32.0387 5.02197H35.0685V12.9326H36.6789V14.7007H35.0685V17H33.0182ZM29.1501 12.9824H33.0514V6.73193H32.9269C31.6984 8.60791 30.3122 10.8242 29.1501 12.8579V12.9824ZM41.2347 17V7.13037H41.0936L38.1136 9.23877V7.22168L41.243 5.02197H43.3763V17H41.2347Z" fill="#1D1D1F"/>
</svg>
