<svg width="54" height="21" viewBox="0 0 54 21" fill="none" xmlns="http://www.w3.org/2000/svg">
<path d="M14.8786 4.72314C17.4352 4.72314 19.6599 6.54102 19.6599 10.8574V10.874C19.6599 14.9082 17.842 17.2988 14.8288 17.2988C12.6291 17.2988 10.9855 15.9956 10.6037 14.1611L10.5871 14.0698H12.6955L12.7204 14.1528C13.0358 14.9912 13.7746 15.5391 14.8288 15.5391C16.7297 15.5391 17.5349 13.6797 17.6262 11.3887C17.6262 11.2974 17.6345 11.2061 17.6345 11.1147H17.4684C17.0285 12.061 15.9826 12.8994 14.3391 12.8994C12.0397 12.8994 10.4294 11.2227 10.4294 8.94824V8.93164C10.4294 6.49951 12.2805 4.72314 14.8786 4.72314ZM14.8703 11.2559C16.2233 11.2559 17.2609 10.2764 17.2609 8.92334V8.90674C17.2609 7.53711 16.2233 6.46631 14.8952 6.46631C13.5754 6.46631 12.5212 7.52051 12.5212 8.85693V8.87354C12.5212 10.2598 13.509 11.2559 14.8703 11.2559ZM23.0204 9.23877C22.265 9.23877 21.7006 8.65771 21.7006 7.92725C21.7006 7.18848 22.265 6.61572 23.0204 6.61572C23.7841 6.61572 24.3402 7.18848 24.3402 7.92725C24.3402 8.65771 23.7841 9.23877 23.0204 9.23877ZM23.0204 15.3979C22.265 15.3979 21.7006 14.8252 21.7006 14.0864C21.7006 13.3477 22.265 12.7749 23.0204 12.7749C23.7841 12.7749 24.3402 13.3477 24.3402 14.0864C24.3402 14.8252 23.7841 15.3979 23.0204 15.3979ZM32.1915 17V14.7007H26.3312V12.9492C27.8834 10.2515 29.5851 7.49561 31.212 5.02197H34.2418V12.9326H35.8522V14.7007H34.2418V17H32.1915ZM28.3233 12.9824H32.2247V6.73193H32.1002C30.8717 8.60791 29.4855 10.8242 28.3233 12.8579V12.9824ZM40.408 17V7.13037H40.2669L37.2869 9.23877V7.22168L40.4163 5.02197H42.5496V17H40.408Z" fill="white"/>
</svg>
